<svg width="140" height="123" viewBox="0 0 140 123" fill="none" xmlns="http://www.w3.org/2000/svg">
<path d="M0.0200588 108.783C0.0321975 108.835 0.0489143 108.885 0.0700318 108.933C0.0754739 108.964 0.0855822 108.995 0.100022 109.023L7.37788 121.641L7.40787 121.671C7.42801 121.703 7.45147 121.733 7.47785 121.761C7.51784 121.801 7.55782 121.831 7.59781 121.871C7.6278 121.891 7.63781 121.921 7.6678 121.931C7.67953 121.939 7.69367 121.942 7.70777 121.941C7.81632 121.996 7.93582 122.027 8.05767 122.031H131.891C132.013 122.027 132.133 121.996 132.241 121.941C132.271 121.921 132.291 121.901 132.321 121.881C132.402 121.83 132.47 121.761 132.521 121.681C132.531 121.661 132.551 121.651 132.571 121.631L139.859 109.013C139.869 109.003 139.869 108.983 139.879 108.973C139.898 108.942 139.912 108.909 139.919 108.873C139.929 108.843 139.939 108.803 139.949 108.773C139.957 108.741 139.96 108.707 139.959 108.673C139.959 108.653 139.969 108.643 139.969 108.623C139.969 108.603 139.959 108.593 139.959 108.573C139.959 108.553 139.949 108.503 139.949 108.473C139.949 108.443 139.929 108.403 139.919 108.373C139.908 108.339 139.895 108.306 139.879 108.273C139.869 108.263 139.869 108.243 139.859 108.233L77.9471 0.984648C77.9296 0.95926 77.9095 0.9358 77.8871 0.914663C77.8558 0.870068 77.8189 0.829738 77.7771 0.794687C77.6987 0.736959 77.6151 0.686747 77.5272 0.644716C77.4751 0.629004 77.4215 0.618949 77.3673 0.614722C77.3373 0.614722 77.3073 0.594727 77.2673 0.594727H62.7016C62.6816 0.594727 62.6716 0.604724 62.6516 0.604724C62.6316 0.604724 62.5816 0.614722 62.5516 0.614722L62.4416 0.644716C62.4073 0.655421 62.3739 0.668793 62.3417 0.684708C62.33 0.69266 62.3158 0.696202 62.3017 0.694706C62.2903 0.707056 62.2767 0.71722 62.2617 0.7247C62.2333 0.742244 62.2065 0.762322 62.1817 0.784688C62.1526 0.808771 62.1258 0.835551 62.1017 0.864672C62.0817 0.894666 62.0618 0.914662 62.0418 0.944656C62.0294 0.956049 62.0193 0.969603 62.0118 0.984648L0.090015 108.243C0.0755754 108.272 0.0654671 108.302 0.060025 108.333C0.0388923 108.382 0.0221751 108.432 0.0100519 108.483C0.00174567 108.533 -0.001613 108.583 4.51313e-05 108.633C0.0100422 108.683 0.0100617 108.733 0.0200588 108.783ZM76.8174 2.16441L137.829 107.843H31.2808L37.659 96.8056H117.345C117.469 96.8046 117.59 96.77 117.695 96.7056C117.705 96.6956 117.725 96.7056 117.735 96.6956C117.761 96.6781 117.784 96.658 117.805 96.6356C117.848 96.6017 117.888 96.565 117.925 96.5256C117.955 96.488 117.982 96.4479 118.005 96.4056C118.035 96.3676 118.056 96.3231 118.065 96.2757C118.086 96.2249 118.096 96.1705 118.095 96.1157C118.095 96.0857 118.115 96.0557 118.115 96.0157C118.115 95.9957 118.105 95.9857 118.105 95.9657C118.1 95.9149 118.09 95.8647 118.075 95.8158C118.063 95.7644 118.046 95.7142 118.025 95.6658C118.015 95.6558 118.015 95.6358 118.005 95.6258L64.0512 2.16441H76.8174ZM131.451 120.461H9.42726L62.7016 28.1792L69.0797 39.217L29.2314 108.233C29.2235 108.245 29.22 108.259 29.2214 108.273C29.2003 108.322 29.1836 108.372 29.1714 108.423C29.1567 108.472 29.1466 108.522 29.1415 108.573C29.1415 108.593 29.1315 108.603 29.1315 108.623C29.1315 108.643 29.1515 108.683 29.1515 108.723C29.1566 108.777 29.1666 108.831 29.1814 108.883C29.2014 108.933 29.2214 108.973 29.2414 109.013C29.2658 109.055 29.2925 109.095 29.3214 109.133C29.3614 109.173 29.4014 109.203 29.4414 109.243C29.4714 109.263 29.4814 109.293 29.5114 109.303C29.5214 109.313 29.5413 109.303 29.5513 109.313C29.6592 109.372 29.7787 109.406 29.9012 109.413H137.809L131.451 120.461ZM101.41 95.2359H38.5587L69.9894 40.7967L101.41 95.2359ZM62.7016 2.95426L115.976 95.2359H103.23L63.3914 26.2196C63.379 26.2082 63.3689 26.1947 63.3614 26.1796C63.3314 26.1396 63.2914 26.0997 63.2614 26.0597C63.2261 26.0211 63.1858 25.9874 63.1414 25.9597C63.1301 25.9473 63.1165 25.9372 63.1014 25.9297C63.0731 25.9152 63.0428 25.9051 63.0115 25.8997C62.9631 25.8786 62.9129 25.8618 62.8615 25.8497C62.762 25.8364 62.6612 25.8364 62.5616 25.8497C62.5102 25.8618 62.46 25.8786 62.4116 25.8997C62.3803 25.9051 62.35 25.9152 62.3217 25.9297C62.3103 25.942 62.2968 25.9522 62.2817 25.9597C62.2417 25.9897 62.2017 26.0297 62.1617 26.0597C62.1204 26.0923 62.0864 26.1331 62.0618 26.1796C62.0494 26.191 62.0393 26.2046 62.0318 26.2196L8.07768 119.681L1.69956 108.643L62.7016 2.95426Z" fill="white"/>
</svg>
